# xmcd
#
# Track frame offsets:
# 150
# 21015
# 43371
# 62939
# 80467
# 105879
# 123253
# 137053
# 168398
# 189565
# 218606
# 237032
# 253800
# 272179
# 283775
# 294278
# 306152
# 316702
# 331376
#
# Disc length: 4647 seconds
#
# Revision: 0
# Processed by: cddbd v1.4PL0 Copyright (c) Steve Scherf et al.
# Submitted via: Audion 3.0.2 (http://www.panic.com/audion/)
#
DISCID=12122513
DTITLE=fagrarg - rgrfg
DYEAR=1900
DGENRE=
TTITLE0=afgfgafgaf
TTITLE1=fgfg
TTITLE2=fgfg
TTITLE3=afg
TTITLE4=fgafg
TTITLE5=fgffg
TTITLE6=fgg
TTITLE7=fgf
TTITLE8=gg
TTITLE9=fg
TTITLE10=fg
TTITLE11=gg
TTITLE12=fgafg
TTITLE13=gg
TTITLE14=afgafg
TTITLE15=fgafgg
TTITLE16=afgfg
TTITLE17=fgafgfg
TTITLE18=fgfgafgfgg
EXTD=
EXTT0=
EXTT1=
EXTT2=
EXTT3=
EXTT4=
EXTT5=
EXTT6=
EXTT7=
EXTT8=
EXTT9=
EXTT10=
EXTT11=
EXTT12=
EXTT13=
EXTT14=
EXTT15=
EXTT16=
EXTT17=
EXTT18=
PLAYORDER=
